<?xml version="1.0" encoding="iso-8859-1"?>
<!-- Generator: Adobe Illustrator 19.0.0, SVG Export Plug-In . SVG Version: 6.00 Build 0)  -->
<svg xmlns="http://www.w3.org/2000/svg" xmlns:xlink="http://www.w3.org/1999/xlink" version="1.1" id="Layer_1" x="0px" y="0px" viewBox="0 0 512 512" style="enable-background:new 0 0 512 512;" xml:space="preserve">
<path style="fill:#FF318E;" d="M256,51.097c0-20.636-17.492-38.284-40.822-40.493c-4.913-0.465-9.922-0.705-15.008-0.705  c-64.071,0-116.01,38.007-116.01,84.891c0,12.828,3.911,24.982,10.872,35.884c-50.664,17.342-85.779,54.955-85.779,98.588  c0,28.287,14.759,54.048,38.941,73.399c-2.373,7.219-3.662,14.747-3.662,22.498c0,37.569,29.54,70.072,72.537,85.804  c-2.626,6.433-4.055,13.244-4.055,20.301c0,39.124,43.343,70.841,96.81,70.841c0.167,0,0.334,0,0.502-0.001  c25.341-0.094,45.677-18.501,45.677-40.787V51.097H256z"/>
<path style="fill:#EA1F8E;" d="M224.469,500.061c-4.443,1.304-9.194,2.019-14.146,2.043h-0.495  c-53.479,0-96.813-31.711-96.813-70.841c0-7.064,1.432-13.868,4.055-20.303c-43-15.726-72.537-48.236-72.537-85.804  c0-7.752,1.285-15.283,3.667-22.494c-24.183-19.356-38.944-45.11-38.944-73.4c0-43.634,35.117-81.251,85.773-98.589  c-6.959-10.902-10.867-23.06-10.867-35.882c0-46.882,51.94-84.893,116.005-84.893c5.086,0,10.104,0.246,15.016,0.701  c1.205,0.111,2.382,0.271,3.546,0.467c-54.898,6.719-96.734,41.653-96.734,83.725c0,12.822,3.908,24.979,10.867,35.882  c-50.668,17.338-85.773,54.955-85.773,98.589c0,28.29,14.749,54.044,38.932,73.4c-2.369,7.211-3.654,14.741-3.654,22.494  c0,37.567,29.536,70.078,72.537,85.804c-2.636,6.436-4.055,13.24-4.055,20.303C150.849,464.549,182.205,492.456,224.469,500.061z"/>
<path style="fill:#FF318E;" d="M256,51.097c0-20.636,17.492-38.284,40.822-40.493c4.913-0.465,9.922-0.705,15.008-0.705  c64.071,0,116.01,38.007,116.01,84.891c0,12.828-3.911,24.982-10.872,35.884c50.664,17.342,85.779,54.955,85.779,98.588  c0,28.287-14.759,54.048-38.941,73.399c2.373,7.219,3.662,14.747,3.662,22.498c0,37.569-29.54,70.072-72.537,85.804  c2.626,6.433,4.055,13.244,4.055,20.301c0,39.124-43.343,70.841-96.81,70.841c-0.167,0-0.334,0-0.502-0.001  c-25.339-0.094-45.675-18.5-45.675-40.787V51.097z"/>
<path style="fill:#EA1F8E;" d="M463.8,302.662c2.382,7.211,3.667,14.741,3.667,22.494c0,37.567-29.536,70.078-72.537,85.804  c2.623,6.436,4.055,13.24,4.055,20.303c0,39.13-43.335,70.841-96.814,70.841h-0.495c-4.952-0.025-9.703-0.739-14.146-2.043  c42.264-7.605,73.62-35.513,73.62-68.798c0-7.064-1.419-13.868-4.055-20.303c43-15.726,72.537-48.236,72.537-85.804  c0-7.752-1.285-15.283-3.654-22.494c24.183-19.356,38.932-45.11,38.932-73.4c0-43.634-35.104-81.251-85.773-98.589  c6.959-10.902,10.867-23.06,10.867-35.882c0-42.071-41.836-77.006-96.734-83.725c1.164-0.196,2.342-0.357,3.546-0.467  c4.912-0.456,9.931-0.701,15.016-0.701c64.065,0,116.005,38.01,116.005,84.893c0,12.822-3.908,24.979-10.867,35.882  c50.655,17.338,85.773,54.955,85.773,98.589C502.744,257.552,487.983,283.306,463.8,302.662z"/>
<path d="M188.452,490.984c-38.969-6.945-66.187-31.504-66.187-59.72c0-5.674,1.134-11.327,3.37-16.804  c0.95-2.328,0.912-4.939-0.103-7.239c-1.017-2.299-2.924-4.086-5.284-4.949c-40.996-15.002-66.463-44.549-66.463-77.115  c0-2.362,0.145-4.732,0.424-7.098c4.217,2.682,9.466,5.812,15.612,9.067c1.38,0.731,2.862,1.078,4.323,1.078  c3.318,0,6.524-1.789,8.185-4.926c2.392-4.517,0.67-10.116-3.847-12.507c-14.9-7.89-24.111-15.032-24.526-15.355  c-22.859-18.299-35.448-41.793-35.448-66.157c0-38.031,31.207-73.288,79.504-89.827c0.002-0.001,0.004-0.001,0.006-0.002  c0.354-0.121,35.776-12.002,70.643-8.197c5.088,0.573,9.649-3.113,10.204-8.192c0.556-5.08-3.112-9.649-8.192-10.203  c-29.27-3.203-58.073,3.236-71.241,6.858c-3.994-8-6.019-16.351-6.019-24.908c0-36.234,36.473-67.48,86.724-74.297  c5.064-0.686,8.612-5.348,7.926-10.412c-0.688-5.064-5.349-8.613-10.413-7.926C118.117,10.229,74.908,49.188,74.908,94.788  c0,10.689,2.314,21.066,6.897,30.974c-22.348,9.165-41.416,22.245-55.58,38.204C9.068,183.293,0,205.871,0,229.261  c0,28.307,13.318,55.314,37.643,76.632c-1.572,6.368-2.366,12.823-2.366,19.266c0,38.177,26.709,72.511,70.312,91.201  c-1.218,4.904-1.832,9.889-1.832,14.903c0,37.343,33.491,69.392,81.446,77.94c0.55,0.097,1.095,0.144,1.634,0.144  c4.399,0,8.3-3.149,9.099-7.63C196.835,496.686,193.483,491.882,188.452,490.984z"/>
<path d="M125.252,273.173c-3.565,3.66-3.489,9.519,0.171,13.084c9.215,8.976,15.906,19.782,19.353,31.248  c1.204,4.007,4.879,6.593,8.858,6.593c0.882,0,1.778-0.128,2.667-0.394c4.894-1.471,7.67-6.63,6.198-11.524  c-4.348-14.469-12.703-28.016-24.162-39.178C134.675,269.434,128.819,269.512,125.252,273.173z"/>
<path d="M156.78,182.312c5.111,0,9.253-4.142,9.253-9.253s-4.143-9.253-9.253-9.253c-37.658,0-68.296,28.504-68.296,63.54  c0,13.263,4.345,25.97,12.566,36.748c1.821,2.387,4.577,3.641,7.363,3.641c1.957,0,3.93-0.619,5.605-1.896  c4.064-3.099,4.845-8.905,1.746-12.968c-5.741-7.525-8.775-16.352-8.775-25.524C106.99,202.514,129.326,182.312,156.78,182.312z"/>
<path d="M158.66,437.377c1.298,0.627,2.67,0.924,4.021,0.924c3.438,0,6.741-1.926,8.337-5.229  c10.488-21.696,11.504-39.553,3.021-53.075c-13.46-21.458-45.427-21.705-46.781-21.705c-5.111,0-9.253,4.142-9.253,9.253  s4.143,9.253,9.253,9.253c0.23,0,23.151,0.354,31.105,13.033c4.873,7.769,3.525,19.607-4.006,35.188  C152.133,429.618,154.06,435.152,158.66,437.377z"/>
<path d="M211.408,119.093c5.111,0,9.253-4.142,9.253-9.253V84.042c0-5.111-4.143-9.253-9.253-9.253c-5.11,0-9.253,4.142-9.253,9.253  v25.797C202.155,114.951,206.298,119.093,211.408,119.093z"/>
<path d="M182.516,235.498c-1.583,4.859,1.073,10.081,5.933,11.664c0.153,0.049,15.487,5.343,21.517,17.993  c3.43,7.197,3.254,15.836-0.524,25.677c-1.832,4.771,0.552,10.123,5.323,11.955c1.091,0.418,2.211,0.616,3.313,0.616  c3.719,0,7.228-2.259,8.64-5.94c5.666-14.763,5.651-28.313-0.048-40.27c-9.506-19.949-31.558-27.324-32.492-27.629  C189.324,227.985,184.098,230.639,182.516,235.498z"/>
<path d="M512,229.261c0-5.111-4.143-9.253-9.253-9.253c-5.111,0-9.253,4.142-9.253,9.253c0,24.367-12.592,47.865-35.459,66.165  c-0.425,0.332-9.627,7.464-24.516,15.347c-4.516,2.392-6.238,7.99-3.847,12.507c1.66,3.136,4.867,4.926,8.185,4.926  c1.46,0,2.942-0.347,4.323-1.078c6.146-3.255,11.395-6.384,15.612-9.067c0.279,2.367,0.424,4.736,0.424,7.098  c0,32.565-25.467,62.113-66.463,77.115c-2.36,0.863-4.267,2.65-5.284,4.949c-1.016,2.299-1.053,4.911-0.103,7.239  c2.236,5.477,3.37,11.13,3.37,16.804c0,33.96-39.278,61.588-87.557,61.588l-0.467-0.001c-20.103-0.074-36.458-14.22-36.458-31.534  V336.6c2.755,1.286,5.816,2.962,8.924,5.129c1.612,1.125,3.458,1.666,5.285,1.666c2.923,0,5.798-1.382,7.597-3.96  c2.924-4.191,1.895-9.96-2.296-12.884c-7.269-5.07-14.388-8.118-19.511-9.87V198.808c18.896-3.786,44.592-16.221,44.592-44.94  c0-5.111-4.143-9.253-9.253-9.253c-5.111,0-9.253,4.142-9.253,9.253c0,16.406-15.405,23.19-26.086,25.926V51.096  c0-16.082,13.946-29.529,32.441-31.281c4.651-0.441,9.408-0.664,14.136-0.664c58.866,0,106.757,33.931,106.757,75.637  c0,8.558-2.025,16.909-6.019,24.908c-13.168-3.623-41.973-10.061-71.241-6.858c-5.08,0.556-8.748,5.123-8.192,10.203  c0.556,5.079,5.12,8.741,10.204,8.192c34.569-3.775,69.972,7.973,70.643,8.197c0.002,0.001,0.005,0.001,0.007,0.002  c33.753,11.558,60.033,32.655,72.101,57.881c2.205,4.61,7.728,6.557,12.34,4.354c4.61-2.205,6.559-7.73,4.354-12.34  c-12.916-26.999-39.053-49.765-72.592-63.562c4.584-9.908,6.899-20.287,6.899-30.978c0-25.702-13.412-49.672-37.768-67.494  C375.84,10.109,344.767,0.645,311.83,0.645c-5.308,0-10.652,0.251-15.88,0.746c-16.827,1.593-31.164,9.925-39.95,21.878  c-8.786-11.953-23.123-20.285-39.95-21.878c-5.076-0.466-9.602,3.253-10.084,8.339c-0.482,5.087,3.252,9.603,8.339,10.084  c18.495,1.752,32.441,15.199,32.441,31.281v128.658c-10.662-2.776-26.086-9.606-26.086-25.886c0-5.111-4.143-9.253-9.253-9.253  c-5.11,0-9.253,4.142-9.253,9.253c0,28.719,25.695,41.153,44.592,44.94v117.868c-10.474,3.579-29.309,12.6-41.01,33.453  c-14.29,25.466-13.262,59.746,3.057,101.885c1.42,3.668,4.92,5.914,8.631,5.914c1.111,0,2.241-0.202,3.339-0.627  c4.766-1.845,7.132-7.205,5.287-11.97c-14.175-36.605-15.622-65.512-4.301-85.922c6.78-12.225,17.139-19.09,24.996-22.776v124.682  c0,13.499-10,25.503-24.882,29.869c-4.904,1.439-7.712,6.58-6.275,11.483c1.184,4.035,4.873,6.651,8.874,6.651  c0.863,0,1.74-0.121,2.609-0.377c12.19-3.577,22.242-10.7,28.968-19.876c9.86,13.366,26.609,22.219,45.567,22.289l0.568,0.001  c27.809,0,54.061-8.003,73.919-22.535c20.729-15.168,32.144-35.61,32.144-57.559c0-5.014-0.613-10-1.832-14.903  c43.604-18.69,70.312-53.024,70.312-91.201c0-6.444-0.794-12.899-2.366-19.266C498.682,284.574,512,257.568,512,229.261z"/>
<path d="M423.516,227.345c0-35.036-30.637-63.54-68.296-63.54c-5.111,0-9.253,4.142-9.253,9.253c0,5.111,4.143,9.253,9.253,9.253  c27.455,0,49.789,20.202,49.789,45.034c0,13.903-6.952,26.819-19.071,35.434c-17.706,12.585-30.647,30.129-36.438,49.402  c-1.471,4.894,1.304,10.053,6.198,11.524c0.888,0.268,1.785,0.394,2.667,0.394c3.978,0,7.654-2.587,8.858-6.593  c4.613-15.352,15.067-29.431,29.436-39.642C413.727,265.732,423.516,247.319,423.516,227.345z"/>
<path d="M384.759,376.799c5.102-0.009,9.235-4.148,9.235-9.253c0-5.111-4.143-9.253-9.253-9.253c-1.354,0-33.32,0.247-46.781,21.705  c-8.484,13.522-7.466,31.378,3.021,53.075c1.597,3.304,4.898,5.229,8.337,5.229c1.351,0,2.723-0.298,4.021-0.924  c4.601-2.225,6.527-7.757,4.304-12.358c-7.518-15.554-8.874-27.378-4.031-35.147C360.229,379.256,378.331,376.835,384.759,376.799z"/>
<path d="M300.592,74.79c-5.111,0-9.253,4.142-9.253,9.253v25.797c0,5.111,4.143,9.253,9.253,9.253c5.111,0,9.253-4.142,9.253-9.253  V84.042C309.845,78.932,305.702,74.79,300.592,74.79z"/>
<path d="M329.483,235.498c-1.582-4.859-6.809-7.517-11.663-5.934c-0.934,0.305-22.986,7.68-32.492,27.629  c-5.699,11.958-5.715,25.506-0.048,40.27c1.413,3.681,4.92,5.94,8.64,5.94c1.102,0,2.224-0.199,3.313-0.616  c4.771-1.832,7.154-7.183,5.323-11.955c-3.76-9.794-3.953-18.398-0.574-25.572c5.972-12.679,21.279-18,21.601-18.109  C328.422,245.553,331.062,240.345,329.483,235.498z"/>
<path d="M291.236,457.301c1.099,0.425,2.229,0.627,3.34,0.627c3.709,0,7.211-2.247,8.631-5.914  c15.149-39.116,17.107-71.559,5.82-96.425c-2.113-4.655-7.597-6.717-12.25-4.601c-4.654,2.112-6.713,7.596-4.602,12.249  c9.154,20.169,7.059,47.789-6.225,82.096C284.103,450.096,286.47,455.454,291.236,457.301z"/>
<g>
</g>
<g>
</g>
<g>
</g>
<g>
</g>
<g>
</g>
<g>
</g>
<g>
</g>
<g>
</g>
<g>
</g>
<g>
</g>
<g>
</g>
<g>
</g>
<g>
</g>
<g>
</g>
<g>
</g>
</svg>
